PathFileType	4	(X/Y/Z)	C:\Users\86182\Documents\cortex\Trimmed_M4_L15.trc
DataRate	CameraRate	NumFrames	NumMarkers	Units	OrigDataRate	OrigDataStartFrame	OrigNumFrames
100.00	100.00	       98	2	mm	100.00	721	       901
Frame#	Time	gripper			box			
		X1	Y1	Z1	X2	Y2	Z2	

721	7.200	274.49091	150.39319	292.46475	277.45459	147.25159	157.21222	
722	7.210	274.49008	150.39244	292.46628	277.45477	147.25119	157.21249	
723	7.220	274.48996	150.39218	292.46716	277.45511	147.25087	157.21286	
724	7.230	274.48999	150.39217	292.46741	277.45557	147.25069	157.21335	
725	7.240	274.49002	150.39224	292.46704	277.45615	147.25053	157.21411	
726	7.250	274.49023	150.39255	292.46613	277.45667	147.25035	157.21503	
727	7.260	274.49112	150.39328	292.46484	277.45700	147.25021	157.21567	
728	7.270	274.49298	150.39453	292.46329	277.45706	147.25026	157.21570	
729	7.280	274.49554	150.39619	292.46161	277.45685	147.25064	157.21484	
730	7.290	274.49832	150.39798	292.45978	277.45639	147.25148	157.21286	
731	7.300	274.50061	150.39949	292.45813	277.45572	147.25273	157.20995	
732	7.310	274.50171	150.40030	292.45697	277.45490	147.25414	157.20660	
733	7.320	274.50128	150.40013	292.45673	277.45407	147.25542	157.20352	
734	7.330	274.49930	150.39896	292.45749	277.45331	147.25632	157.20126	
735	7.340	274.49600	150.39694	292.45917	277.45264	147.25668	157.20016	
736	7.350	274.49182	150.39439	292.46124	277.45224	147.25648	157.20047	
737	7.360	274.48730	150.39174	292.46298	277.45221	147.25575	157.20209	
738	7.370	274.48309	150.38939	292.46399	277.45261	147.25464	157.20471	
739	7.380	274.47961	150.38762	292.46408	277.45343	147.25337	157.20790	
740	7.390	274.47714	150.38651	292.46341	277.45450	147.25214	157.21106	
741	7.400	274.47586	150.38615	292.46204	277.45551	147.25119	157.21359	
742	7.410	274.47589	150.38658	292.46008	277.45633	147.25072	157.21506	
743	7.420	274.47702	150.38765	292.45779	277.45688	147.25072	157.21539	
744	7.430	274.47882	150.38904	292.45544	277.45715	147.25102	157.21497	
745	7.440	274.48065	150.39037	292.45355	277.45731	147.25139	157.21432	
746	7.450	274.48209	150.39125	292.45279	277.45740	147.25159	157.21393	
747	7.460	274.48285	150.39149	292.45346	277.45752	147.25150	157.21410	
748	7.470	274.48282	150.39111	292.45526	277.45761	147.25116	157.21471	
749	7.480	274.48212	150.39026	292.45764	277.45755	147.25066	157.21536	
750	7.490	274.48105	150.38921	292.46002	277.45728	147.25017	157.21574	
751	7.500	274.48001	150.38824	292.46210	277.45688	147.24986	157.21576	
752	7.510	274.47928	150.38756	292.46350	277.45642	147.24983	157.21539	
753	7.520	274.47897	150.38730	292.46408	277.45602	147.25005	157.21475	
754	7.530	274.47928	150.38754	292.46368	277.45566	147.25044	157.21397	
755	7.540	274.48041	150.38835	292.46246	277.45551	147.25093	157.21329	
756	7.550	274.48242	150.38971	292.46088	277.45563	147.25137	157.21297	
757	7.560	274.48532	150.39146	292.45953	277.45621	147.25163	157.21338	
758	7.570	274.48886	150.39339	292.45889	277.45718	147.25169	157.21469	
759	7.580	274.49268	150.39523	292.45926	277.45847	147.25165	157.21652	
760	7.590	274.49631	150.39677	292.46063	277.45959	147.25157	157.21826	
761	7.600	274.49936	150.39787	292.46274	277.46027	147.25154	157.21921	
762	7.610	274.50165	150.39851	292.46509	277.46027	147.25146	157.21921	
763	7.620	274.50293	150.39871	292.46722	277.45975	147.25127	157.21863	
764	7.630	274.50293	150.39839	292.46875	277.45892	147.25089	157.21790	
765	7.640	274.50146	150.39749	292.46954	277.45807	147.25038	157.21725	
766	7.650	274.49866	150.39607	292.46957	277.45734	147.24982	157.21695	
767	7.660	274.49496	150.39433	292.46896	277.45685	147.24924	157.21716	
768	7.670	274.49091	150.39247	292.46808	277.45670	147.24867	157.21796	
769	7.680	274.48709	150.39072	292.46729	277.45691	147.24814	157.21939	
770	7.690	274.48392	150.38922	292.46674	277.45740	147.24767	157.22116	
771	7.700	274.48151	150.38811	292.46625	277.45795	147.24744	157.22263	
772	7.710	274.47986	150.38744	292.46545	277.45828	147.24757	157.22305	
773	7.720	274.47897	150.38724	292.46432	277.45828	147.24818	157.22198	
774	7.730	274.47885	150.38747	292.46295	277.45786	147.24928	157.21942	
775	7.740	274.47946	150.38803	292.46170	277.45712	147.25070	157.21579	
776	7.750	274.48053	150.38875	292.46088	277.45621	147.25220	157.21173	
777	7.760	274.48184	150.38943	292.46082	277.45535	147.25349	157.20807	
778	7.770	274.48331	150.39000	292.46161	277.45471	147.25438	157.20544	
779	7.780	274.48480	150.39046	292.46310	277.45435	147.25475	157.20416	
780	7.790	274.48633	150.39081	292.46500	277.45428	147.25462	157.20413	
781	7.800	274.48782	150.39116	292.46698	277.45444	147.25414	157.20508	
782	7.810	274.48935	150.39154	292.46878	277.45468	147.25345	157.20645	
783	7.820	274.49063	150.39186	292.47028	277.45483	147.25275	157.20778	
784	7.830	274.49133	150.39201	292.47125	277.45486	147.25218	157.20863	
785	7.840	274.49136	150.39198	292.47144	277.45474	147.25186	157.20889	
786	7.850	274.49100	150.39194	292.47089	277.45459	147.25182	157.20874	
787	7.860	274.49060	150.39197	292.46970	277.45447	147.25192	157.20837	
788	7.870	274.49011	150.39204	292.46817	277.45428	147.25212	157.20782	
789	7.880	274.48944	150.39206	292.46655	277.45407	147.25240	157.20709	
790	7.890	274.48862	150.39201	292.46478	277.45386	147.25269	157.20636	
791	7.900	274.48770	150.39197	292.46280	277.45383	147.25294	157.20593	
792	7.910	274.48685	150.39200	292.46066	277.45395	147.25319	157.20590	
793	7.920	274.48639	150.39215	292.45880	277.45425	147.25339	157.20615	
794	7.930	274.48642	150.39244	292.45752	277.45468	147.25342	157.20685	
795	7.940	274.48703	150.39284	292.45715	277.45532	147.25317	157.20831	
796	7.950	274.48807	150.39323	292.45773	277.45624	147.25273	157.21046	
797	7.960	274.48920	150.39349	292.45917	277.45724	147.25229	157.21277	
798	7.970	274.48999	150.39348	292.46115	277.45816	147.25206	157.21460	
799	7.980	274.49030	150.39322	292.46313	277.45880	147.25206	157.21573	
800	7.990	274.49033	150.39288	292.46472	277.45932	147.25214	157.21649	
801	8.000	274.49048	150.39272	292.46594	277.45981	147.25209	157.21744	
802	8.010	274.49133	150.39297	292.46667	277.46033	147.25183	157.21866	
803	8.020	274.49316	150.39388	292.46686	277.46085	147.25146	157.22002	
804	8.030	274.49603	150.39539	292.46655	277.46130	147.25110	157.22110	
805	8.040	274.49948	150.39726	292.46594	277.46149	147.25089	157.22153	
806	8.050	274.50290	150.39912	292.46524	277.46124	147.25090	157.22095	
807	8.060	274.50549	150.40060	292.46448	277.46051	147.25110	157.21948	
808	8.070	274.50687	150.40144	292.46375	277.45944	147.25148	157.21759	
809	8.080	274.50690	150.40163	292.46301	277.45810	147.25201	157.21561	
810	8.090	274.50595	150.40128	292.46243	277.45657	147.25267	157.21390	
811	8.100	274.50439	150.40057	292.46204	277.45493	147.25342	157.21271	
812	8.110	274.50238	150.39960	292.46185	277.45322	147.25423	157.21213	
813	8.120	274.49997	150.39836	292.46194	277.45157	147.25508	157.21213	
814	8.130	274.49731	150.39693	292.46228	277.45032	147.25591	157.21255	
815	8.140	274.49451	150.39542	292.46271	277.44986	147.25656	157.21307	
816	8.150	274.49185	150.39403	292.46295	277.45038	147.25690	157.21356	
817	8.160	274.48975	150.39301	292.46274	277.45166	147.25682	157.21423	
818	8.170	274.48859	150.39261	292.46191	277.45340	147.25633	157.21521	
